# Blender v2.78 (sub 0) OBJ File: ''
# www.blender.org
mtllib oneByOne.mtl
o Cube
v -0.014743 0.000000 0.029486
v -0.014743 0.000000 5.029486
v -5.014743 0.000000 5.029485
v -5.014742 0.000000 0.029485
v -0.014741 6.000000 0.029487
v -0.014744 6.000000 5.029487
v -5.014744 6.000000 5.029485
v -5.014742 6.000000 0.029485
vn 0.0000 -1.0000 0.0000
vn 0.0000 1.0000 0.0000
vn 1.0000 -0.0000 0.0000
vn -0.0000 -0.0000 1.0000
vn -1.0000 -0.0000 -0.0000
vn 0.0000 0.0000 -1.0000
usemtl Material
s off
f 1//1 3//1 4//1
f 8//2 6//2 5//2
f 5//3 2//3 1//3
f 6//4 3//4 2//4
f 7//5 4//5 3//5
f 1//6 8//6 5//6
f 1//1 2//1 3//1
f 8//2 7//2 6//2
f 5//3 6//3 2//3
f 6//4 7//4 3//4
f 7//5 8//5 4//5
f 1//6 4//6 8//6
